# MagicaVoxel @ Ephtracy

# group
o 

# material
mtllib invalid.mtl
usemtl palette

# normals
vn -1 0 0
vn 1 0 0
vn 0 0 1
vn 0 0 -1
vn 0 -1 0
vn 0 1 0

# texcoords
vt 0.0996094 0.5
vt 0.306641 0.5
vt 0.994141 0.5

# verts
v -0.8 0 0.8
v -0.8 0 0
v -0.8 0 -0.8
v -0.8 0.8 0.8
v -0.8 0.8 0
v -0.8 0.8 -0.8
v -0.8 1.6 0.8
v -0.8 1.6 0
v -0.8 1.6 -0.8
v 0.8 0 0.8
v 0.8 0 0
v 0.8 0 -0.8
v 0.8 0.8 0.8
v 0.8 0.8 0
v 0.8 0.8 -0.8
v 0.8 1.6 0.8
v 0.8 1.6 0
v 0.8 1.6 -0.8
v -0.8 0 0.8
v -0.8 0.8 0.8
v -0.8 1.6 0.8
v 0 0 0.8
v 0 0.8 0.8
v 0 1.6 0.8
v 0.8 0 0.8
v 0.8 0.8 0.8
v 0.8 1.6 0.8
v -0.8 0 -0.8
v -0.8 0.8 -0.8
v -0.8 1.6 -0.8
v 0 0 -0.8
v 0 0.8 -0.8
v 0 1.6 -0.8
v 0.8 0 -0.8
v 0.8 0.8 -0.8
v 0.8 1.6 -0.8
v -0.8 0 0.8
v 0 0 0.8
v 0.8 0 0.8
v -0.8 0 0
v 0 0 0
v 0.8 0 0
v -0.8 0 -0.8
v 0 0 -0.8
v 0.8 0 -0.8
v -0.8 1.6 0.8
v 0 1.6 0.8
v 0.8 1.6 0.8
v -0.8 1.6 0
v 0 1.6 0
v 0.8 1.6 0
v -0.8 1.6 -0.8
v 0 1.6 -0.8
v 0.8 1.6 -0.8

# faces
f 4/3/1 2/3/1 1/3/1
f 5/1/1 3/1/1 2/1/1
f 5/3/1 2/3/1 4/3/1
f 6/1/1 3/1/1 5/1/1
f 7/1/1 5/1/1 4/1/1
f 8/3/1 6/3/1 5/3/1
f 8/1/1 5/1/1 7/1/1
f 9/3/1 6/3/1 8/3/1
f 10/1/2 11/1/2 13/1/2
f 11/3/2 12/3/2 14/3/2
f 13/1/2 11/1/2 14/1/2
f 14/3/2 12/3/2 15/3/2
f 13/3/2 14/3/2 16/3/2
f 14/1/2 15/1/2 17/1/2
f 16/3/2 14/3/2 17/3/2
f 17/1/2 15/1/2 18/1/2
f 22/3/3 20/3/3 19/3/3
f 23/1/3 21/1/3 20/1/3
f 23/3/3 20/3/3 22/3/3
f 24/1/3 21/1/3 23/1/3
f 25/1/3 23/1/3 22/1/3
f 26/3/3 24/3/3 23/3/3
f 26/1/3 23/1/3 25/1/3
f 27/3/3 24/3/3 26/3/3
f 28/1/4 29/1/4 31/1/4
f 29/3/4 30/3/4 32/3/4
f 31/1/4 29/1/4 32/1/4
f 32/3/4 30/3/4 33/3/4
f 31/3/4 32/3/4 34/3/4
f 32/1/4 33/1/4 35/1/4
f 34/3/4 32/3/4 35/3/4
f 35/1/4 33/1/4 36/1/4
f 40/3/5 38/3/5 37/3/5
f 41/1/5 39/1/5 38/1/5
f 41/3/5 38/3/5 40/3/5
f 42/1/5 39/1/5 41/1/5
f 43/1/5 41/1/5 40/1/5
f 44/3/5 42/3/5 41/3/5
f 44/1/5 41/1/5 43/1/5
f 45/3/5 42/3/5 44/3/5
f 46/1/6 47/1/6 49/1/6
f 47/3/6 48/3/6 50/3/6
f 49/1/6 47/1/6 50/1/6
f 50/3/6 48/3/6 51/3/6
f 49/3/6 50/3/6 52/3/6
f 50/1/6 51/1/6 53/1/6
f 52/3/6 50/3/6 53/3/6
f 53/1/6 51/1/6 54/1/6
